HIERARCHY
ROOT Hips
{
	OFFSET 0.000000 0.000000 0.000000 
	CHANNELS 6 Xposition Yposition Zposition Zrotation Yrotation Xrotation
	JOINT LeftUpLeg
	{
		OFFSET 1.363060 -1.794630 0.839290 
		CHANNELS 3 Zrotation Yrotation Xrotation
		JOINT LeftLeg
		{
			OFFSET 2.448110 -6.726130 0.000000 
			CHANNELS 3 Zrotation Yrotation Xrotation
			JOINT LeftFoot
			{
				OFFSET 2.562200 -7.039590 0.000000 
				CHANNELS 3 Zrotation Yrotation Xrotation
				JOINT LeftToeBase
				{
					OFFSET 0.157640 -0.433110 2.322550 
					CHANNELS 3 Zrotation Yrotation Xrotation
					End Site
					{
						OFFSET 0.000000 0.000000 0.000000 
					}
				}
			}
		}
	}
	JOINT RightUpLeg
	{
		OFFSET -1.305520 -1.794630 0.839290 
		CHANNELS 3 Zrotation Yrotation Xrotation
		JOINT RightLeg
		{
			OFFSET -2.542530 -6.985550 0.000000 
			CHANNELS 3 Zrotation Yrotation Xrotation
			JOINT RightFoot
			{
				OFFSET -2.568260 -7.056230 0.000000 
				CHANNELS 3 Zrotation Yrotation Xrotation
				JOINT RightToeBase
				{
					OFFSET -0.164730 -0.452590 2.363150 
					CHANNELS 3 Zrotation Yrotation Xrotation
					End Site
					{
						OFFSET 0.000000 0.000000 0.000000 
					}
				}
			}
		}
	}
	JOINT Spine
	{
		OFFSET 0.028270 2.035590 -0.193380 
		CHANNELS 3 Zrotation Yrotation Xrotation
		JOINT Spine1
		{
			OFFSET 0.056720 2.048850 -0.042750 
			CHANNELS 3 Zrotation Yrotation Xrotation
			JOINT Neck1
			{
				OFFSET -0.054170 1.746240 0.172020 
				CHANNELS 3 Zrotation Yrotation Xrotation
				JOINT Head
				{
					OFFSET 0.104070 1.761360 -0.123970 
					CHANNELS 3 Zrotation Yrotation Xrotation
					End Site
					{
						OFFSET 0.000000 0.000000 0.000000 
					}
				}
			}
			JOINT LeftArm
			{
				OFFSET 3.362410 1.200890 -0.311210 
				CHANNELS 3 Zrotation Yrotation Xrotation
				JOINT LeftForeArm
				{
					OFFSET 4.983000 -0.000000 -0.000000 
					CHANNELS 3 Zrotation Yrotation Xrotation
					JOINT LeftHand
					{
						OFFSET 3.483560 -0.000000 -0.000000 
						CHANNELS 3 Zrotation Yrotation Xrotation
						JOINT LeftHandIndex1
						{
							OFFSET 0.715260 -0.000000 -0.000000 
							CHANNELS 3 Zrotation Yrotation Xrotation
							End Site
							{
								OFFSET 0.000000 0.000000 0.000000 
							}
						}
					}
				}
			}
			JOINT RightArm
			{
				OFFSET -3.136600 1.374050 -0.404650 
				CHANNELS 3 Zrotation Yrotation Xrotation
				JOINT RightForeArm
				{
					OFFSET -5.241900 -0.000000 -0.000000 
					CHANNELS 3 Zrotation Yrotation Xrotation
					JOINT RightHand
					{
						OFFSET -3.444170 -0.000000 -0.000000 
						CHANNELS 3 Zrotation Yrotation Xrotation
						JOINT RightHandIndex1
						{
							OFFSET -0.622530 -0.000000 -0.000000 
							CHANNELS 3 Zrotation Yrotation Xrotation
							End Site
							{
								OFFSET 0.000000 0.000000 0.000000 
							}
						}
					}
				}
			}
		}
	}
}
MOTION
Frames: 13
Frame Time: 0.041667
3.144767 17.497831 35.417352 -164.504816 -89.437890 179.771137 -7.151045 -1.692716 0.861619 -4.679620 -0.862267 3.508645 -0.061140 6.838036 24.267309 0.000000 0.000000 0.000000 31.135869 22.334886 -13.694996 5.041139 -11.102940 19.768437 3.475441 -14.731202 0.087331 -0.128700 -2.312700 6.370600 2.360448 -3.564636 -5.516571 4.982019 -1.469674 3.683477 12.140424 -12.801699 10.372295 1.862100 -5.105000 10.309200 -80.657319 8.689727 50.243215 15.934475 -21.177141 -4.603725 -0.650262 -3.942949 -48.890011 -7.125000 0.000000 0.000000 74.119878 -5.030669 18.315347 -15.542680 17.474086 -3.289554 0.657164 2.300703 -18.967680 7.125000 0.000000 0.000000 
3.146881 17.497831 35.417575 -164.108059 -89.470620 179.384258 -7.154094 -1.691641 0.857512 -4.679750 -0.860096 3.507397 -0.060615 6.840248 24.266470 0.000000 0.000000 0.000000 31.142754 22.308164 -13.701205 5.042168 -11.098397 19.759391 3.481614 -14.749538 0.083831 -0.128200 -2.307700 6.356800 2.356824 -3.552285 -5.513727 4.986469 -1.464528 3.734679 12.081435 -12.572659 10.446238 1.807100 -4.975100 10.359100 -80.363376 8.668651 51.732787 15.931735 -21.203286 -4.609955 -0.707820 -3.867863 -47.783488 -7.125000 0.000000 0.000000 73.957014 -5.117793 19.432537 -15.569204 17.501128 -3.279714 0.723808 2.211039 -17.526515 7.125000 0.000000 0.000000 
3.148884 17.497942 35.417909 -163.634843 -89.497156 178.922183 -7.157685 -1.690381 0.852677 -4.679905 -0.857547 3.505928 -0.059968 6.842845 24.265483 0.000000 0.000000 0.000000 31.153798 22.287126 -13.704655 5.044153 -11.091666 19.744580 3.488036 -14.769400 0.082326 -0.128100 -2.306800 6.354300 2.351870 -3.533884 -5.510520 4.982718 -1.457137 3.788715 12.021520 -12.338314 10.524038 1.754900 -4.843000 10.414400 -80.072978 8.627193 53.173895 15.920254 -21.214179 -4.610627 -0.753001 -3.785663 -46.699961 -7.125000 0.000000 0.000000 73.797401 -5.189694 20.578087 -15.578315 17.512150 -3.270712 0.810068 2.121431 -16.253359 7.125000 0.000000 0.000000 
3.150776 17.498053 35.418131 -163.089917 -89.515172 178.391044 -7.161855 -1.688923 0.847064 -4.680084 -0.854589 3.504223 -0.059204 6.845858 24.264336 0.000000 0.000000 0.000000 31.169718 22.278536 -13.703311 5.047095 -11.082731 19.723926 3.495373 -14.793160 0.080994 -0.128500 -2.310800 6.365300 2.344444 -3.505978 -5.506484 4.968075 -1.445703 3.846060 11.960536 -12.101509 10.602503 1.705200 -4.710400 10.473300 -79.785347 8.565572 54.558725 15.900239 -21.209867 -4.606148 -0.784688 -3.697405 -45.642041 -7.125000 0.000000 0.000000 73.654204 -5.243989 21.696887 -15.566744 17.503047 -3.261639 0.910535 2.033011 -15.099328 7.125000 0.000000 0.000000 
3.152445 17.498165 35.418131 -162.467153 -89.524117 177.780899 -7.166733 -1.687218 0.840496 -4.680293 -0.851125 3.502228 -0.058320 6.849387 24.262994 0.000000 0.000000 0.000000 31.193921 22.284321 -13.693180 5.050817 -11.071637 19.698147 3.505156 -14.824785 0.077081 -0.129200 -2.317300 6.383300 2.335655 -3.473873 -5.501714 4.945189 -1.432403 3.906202 11.897391 -11.859108 10.681687 1.655700 -4.575400 10.532800 -79.502373 8.491283 55.866965 15.873245 -21.193370 -4.597166 -0.804295 -3.604508 -44.613271 -7.125000 0.000000 0.000000 73.533273 -5.277403 22.769507 -15.531228 17.469065 -3.250731 1.021601 1.945144 -14.024073 7.125000 0.000000 0.000000 
3.154002 17.498387 35.418020 -161.817849 -89.525839 177.143837 -7.171948 -1.685395 0.833471 -4.680517 -0.847416 3.500093 -0.057394 6.853164 24.261558 0.000000 0.000000 0.000000 31.221889 22.300019 -13.676395 5.055099 -11.058772 19.668575 3.515754 -14.859188 0.073188 -0.130300 -2.326700 6.409400 2.325495 -3.438258 -5.496168 4.913423 -1.417758 3.969203 11.829807 -11.612423 10.764217 1.605700 -4.438900 10.595500 -79.231971 8.404574 57.091083 15.840085 -21.165505 -4.584465 -0.813354 -3.509779 -43.616933 -7.125000 0.000000 0.000000 73.437061 -5.290160 23.774763 -15.469797 17.407863 -3.237084 1.139752 1.858130 -12.987107 7.125000 0.000000 0.000000 
3.155337 17.498610 35.417909 -161.132944 -89.519237 176.469803 -7.177581 -1.683425 0.825881 -4.680758 -0.843404 3.497786 -0.056415 6.857249 24.260005 0.000000 0.000000 0.000000 31.255552 22.322889 -13.653400 5.059584 -11.044689 19.636669 3.527634 -14.897984 0.070237 -0.130900 -2.331900 6.423800 2.314514 -3.400801 -5.489802 4.873803 -1.402208 4.034914 11.757029 -11.359156 10.848065 1.554100 -4.300000 10.657900 -78.977474 8.309561 58.211554 15.801982 -21.128477 -4.568707 -0.813548 -3.417347 -42.663486 -7.125000 0.000000 0.000000 73.361694 -5.286165 24.726028 -15.383974 17.320512 -3.220685 1.260984 1.771388 -11.996123 7.125000 0.000000 0.000000 
3.156561 17.498610 35.417797 -160.452591 -89.505756 175.796887 -7.183361 -1.681400 0.818088 -4.681004 -0.839280 3.495417 -0.055439 6.861449 24.258410 0.000000 0.000000 0.000000 31.292997 22.352476 -13.625349 5.064067 -11.030210 19.604465 3.539726 -14.937981 0.067907 -0.131400 -2.336800 6.437400 2.302808 -3.362459 -5.482659 4.826126 -1.386594 4.102933 11.678213 -11.100688 10.933754 1.499500 -4.159400 10.719900 -78.742199 8.209753 59.229703 15.760608 -21.084918 -4.550766 -0.807771 -3.330070 -41.770796 -7.125000 0.000000 0.000000 73.304132 -5.269396 25.637003 -15.277551 17.211206 -3.201801 1.379861 1.686385 -11.086502 7.125000 0.000000 0.000000 
3.157674 17.498610 35.417909 -159.789055 -89.489029 175.139062 -7.189123 -1.679380 0.810314 -4.681248 -0.835161 3.493054 -0.054493 6.865643 24.256818 0.000000 0.000000 0.000000 31.330322 22.383798 -13.595229 5.068259 -11.016233 19.574005 3.551131 -14.975355 0.064346 -0.132500 -2.346400 6.463900 2.289962 -3.322668 -5.474927 4.767988 -1.370286 4.169339 11.596039 -10.832538 11.014504 1.445500 -4.016100 10.776300 -78.525399 8.103973 60.118291 15.702700 -21.016921 -4.523241 -0.797063 -3.236488 -40.897654 -7.125000 0.000000 0.000000 73.272107 -5.237265 26.454814 -15.149956 17.077021 -3.177673 1.492270 1.601788 -10.251188 7.125000 0.000000 0.000000 
3.158898 17.498610 35.418242 -159.194649 -89.473388 174.549497 -7.194462 -1.677505 0.803108 -4.681473 -0.831336 3.490862 -0.053651 6.869537 24.255341 0.000000 0.000000 0.000000 31.362867 22.415766 -13.566543 5.071903 -11.003820 19.547116 3.562319 -15.011882 0.058918 -0.134000 -2.359600 6.500500 2.275846 -3.282503 -5.466656 4.701330 -1.354117 4.233241 11.512179 -10.555987 11.086952 1.393900 -3.871500 10.825100 -78.329220 7.994408 60.906841 15.645477 -20.947668 -4.495473 -0.785933 -3.157653 -40.170993 -7.125000 0.000000 0.000000 73.262512 -5.191622 27.175698 -15.006247 16.923433 -3.148543 1.593883 1.519787 -9.535129 7.125000 0.000000 0.000000 
3.160344 17.498610 35.419132 -158.712706 -89.461862 174.069209 -7.199042 -1.675895 0.796922 -4.681665 -0.828047 3.488981 -0.052962 6.872886 24.254072 0.000000 0.000000 0.000000 31.386647 22.441168 -13.542427 5.074572 -10.993661 19.525733 3.572019 -15.042684 0.053576 -0.135800 -2.375100 6.543400 2.259123 -3.238869 -5.457832 4.623267 -1.337247 4.293617 11.428657 -10.274922 11.148957 1.346100 -3.727200 10.867300 -78.144840 7.881058 61.607633 15.591279 -20.880276 -4.468659 -0.776963 -3.096121 -39.622897 -7.125000 0.000000 0.000000 73.279997 -5.129971 27.777108 -14.848723 16.752330 -3.113986 1.683038 1.442357 -8.958299 7.125000 0.000000 0.000000 
3.161902 17.498498 35.420245 -158.362374 -89.456315 173.717227 -7.202696 -1.674607 0.791984 -4.681816 -0.825413 3.487480 -0.052456 6.875568 24.253057 0.000000 0.000000 0.000000 31.400554 22.461592 -13.523655 5.076146 -10.986359 19.510557 3.581636 -15.072517 0.046509 -0.137400 -2.388700 6.581100 2.239765 -3.192342 -5.448812 4.534333 -1.319839 4.348881 11.345597 -9.992390 11.200782 1.301400 -3.584500 10.902400 -77.976865 7.763765 62.209856 15.539105 -20.813250 -4.441910 -0.770327 -3.054862 -39.274175 -7.125000 0.000000 0.000000 73.327279 -5.052764 28.242117 -14.680593 16.566145 -3.073386 1.757128 1.372813 -8.509886 7.125000 0.000000 0.000000 
3.163460 17.498276 35.421358 -158.122432 -89.454598 173.474537 -7.205593 -1.673585 0.788066 -4.681934 -0.823314 3.486287 -0.052100 6.877707 24.252249 0.000000 0.000000 0.000000 31.408679 22.480145 -13.508113 5.076714 -10.981621 19.500924 3.592579 -15.105443 0.038289 -0.137900 -2.393700 6.595100 2.218389 -3.145116 -5.439601 4.437688 -1.302799 4.400410 11.264940 -9.708646 11.243382 1.260700 -3.443200 10.931400 -77.825398 7.646106 62.706615 15.493569 -20.753118 -4.417565 -0.767887 -3.039064 -39.154056 -7.125000 0.000000 0.000000 73.404185 -4.958023 28.560071 -14.503505 16.365773 -3.025802 1.815142 1.312537 -8.152048 7.125000 0.000000 0.000000 
